<svg width="20" height="18" viewBox="0 0 20 18" style="color: var(--svgDefaultColor, currentColor)" fill="none" xmlns="http://www.w3.org/2000/svg">
<path d="M10.0013 8.16667V13.1667M7.5013 10.6667H12.5013M18.3346 14.8333C18.3346 15.2754 18.159 15.6993 17.8465 16.0118C17.5339 16.3244 17.11 16.5 16.668 16.5H3.33464C2.89261 16.5 2.46868 16.3244 2.15612 16.0118C1.84356 15.6993 1.66797 15.2754 1.66797 14.8333V3.16667C1.66797 2.72464 1.84356 2.30072 2.15612 1.98816C2.46868 1.67559 2.89261 1.5 3.33464 1.5H7.5013L9.16797 4H16.668C17.11 4 17.5339 4.17559 17.8465 4.48816C18.159 4.80072 18.3346 5.22464 18.3346 5.66667V14.8333Z" stroke="currentColor" stroke-width="1.67" stroke-linecap="round" stroke-linejoin="round"/>
</svg>
