<svg width="18" height="20" viewBox="0 0 18 20" fill="none" xmlns="http://www.w3.org/2000/svg">
<path d="M16.5 4.16797C16.5 5.54868 13.1421 6.66797 9 6.66797C4.85786 6.66797 1.5 5.54868 1.5 4.16797M16.5 4.16797C16.5 2.78726 13.1421 1.66797 9 1.66797C4.85786 1.66797 1.5 2.78726 1.5 4.16797M16.5 4.16797V15.8346C16.5 17.218 13.1667 18.3346 9 18.3346C4.83333 18.3346 1.5 17.218 1.5 15.8346V4.16797M16.5 10.0013C16.5 11.3846 13.1667 12.5013 9 12.5013C4.83333 12.5013 1.5 11.3846 1.5 10.0013" stroke="#667085" stroke-width="1.66667" stroke-linecap="round" stroke-linejoin="round"/>
</svg>
