<svg width="16" height="16" viewBox="0 0 16 16" fill="none" xmlns="http://www.w3.org/2000/svg">
<path d="M13.3538 1.65332L2.78711 12.22" stroke="#344054" stroke-width="1.5" stroke-linecap="round" stroke-linejoin="round"/>
<path d="M3.4994 8.66667C3.2194 8.02 3.05273 7.32 3.05273 6.6C3.05273 3.32667 5.86607 0.746671 9.06607 1.44667C10.0394 1.66 10.9061 2.18 11.5727 2.9" stroke="#344054" stroke-width="1.5" stroke-linecap="round" stroke-linejoin="round"/>
<path d="M12.7068 4.86667C13.5201 7.45334 12.2068 10.0533 10.3468 11.2467V12.02C10.3468 12.2133 10.4134 12.66 9.74677 12.66H6.2801C5.59344 12.66 5.6801 12.3733 5.6801 12.02V11.2467C5.3601 11.0467 5.0601 10.8 4.77344 10.5133" stroke="#344054" stroke-width="1.5" stroke-linecap="round" stroke-linejoin="round"/>
<path d="M5.66602 14.6667C7.19268 14.2333 8.80602 14.2333 10.3327 14.6667" stroke="#344054" stroke-width="1.5" stroke-linecap="round" stroke-linejoin="round"/>
</svg>
