<svg width="20" height="20" viewBox="0 0 20 20" fill="none" xmlns="http://www.w3.org/2000/svg">
<g clip-path="url(#clip0_2729_112638)">
<path d="M6.66502 14.1686L9.99836 17.5019M9.99836 17.5019L13.3317 14.1686M9.99836 17.5019V10.0019M17.3984 15.0769C18.1229 14.5674 18.6662 13.8404 18.9494 13.0012C19.2327 12.162 19.2412 11.2544 18.9737 10.4101C18.7062 9.56576 18.1766 8.82864 17.4617 8.3057C16.7469 7.78276 15.884 7.5012 14.9984 7.5019H13.9484C13.6977 6.52512 13.2288 5.61794 12.5768 4.84863C11.9248 4.07932 11.1068 3.46795 10.1844 3.06053C9.26192 2.6531 8.25906 2.46025 7.2513 2.49649C6.24353 2.53274 5.25712 2.79712 4.36632 3.26975C3.47552 3.74238 2.70354 4.41094 2.10851 5.22509C1.51348 6.03924 1.1109 6.97777 0.931075 7.97002C0.751249 8.96228 0.798866 9.98239 1.07034 10.9536C1.34182 11.9248 1.83007 12.8217 2.49836 13.5769" stroke="#344054" stroke-width="1.67" stroke-linecap="round" stroke-linejoin="round"/>
</g>
<defs>
<clipPath id="clip0_2729_112638">
<rect width="20" height="20" fill="white"/>
</clipPath>
</defs>
</svg>
