<svg width="19" height="20" viewBox="0 0 19 20" fill="none" xmlns="http://www.w3.org/2000/svg">
<path d="M13.668 2.50286C13.8868 2.28399 14.1467 2.11037 14.4326 1.99192C14.7186 1.87347 15.0251 1.8125 15.3346 1.8125C15.6442 1.8125 15.9507 1.87347 16.2366 1.99192C16.5226 2.11037 16.7824 2.28399 17.0013 2.50286C17.2202 2.72173 17.3938 2.98156 17.5122 3.26753C17.6307 3.5535 17.6917 3.85999 17.6917 4.16952C17.6917 4.47905 17.6307 4.78555 17.5122 5.07152C17.3938 5.35748 17.2202 5.61732 17.0013 5.83619L5.7513 17.0862L1.16797 18.3362L2.41797 13.7529L13.668 2.50286Z" stroke="#667085" stroke-width="1.66667" stroke-linecap="round" stroke-linejoin="round"/>
</svg>
