<svg width="20" height="20" viewBox="0 0 20 20" fill="none" xmlns="http://www.w3.org/2000/svg">
<path d="M9.16797 3.33027H3.33464C2.89261 3.33027 2.46868 3.50586 2.15612 3.81842C1.84356 4.13098 1.66797 4.55491 1.66797 4.99693V16.6636C1.66797 17.1056 1.84356 17.5296 2.15612 17.8421C2.46868 18.1547 2.89261 18.3303 3.33464 18.3303H15.0013C15.4433 18.3303 15.8673 18.1547 16.1798 17.8421C16.4924 17.5296 16.668 17.1056 16.668 16.6636V10.8303M15.418 2.08027C15.7495 1.74875 16.1991 1.5625 16.668 1.5625C17.1368 1.5625 17.5864 1.74875 17.918 2.08027C18.2495 2.41179 18.4357 2.86143 18.4357 3.33027C18.4357 3.79911 18.2495 4.24875 17.918 4.58027L10.0013 12.4969L6.66797 13.3303L7.5013 9.99693L15.418 2.08027Z" stroke="white" stroke-width="1.67" stroke-linecap="round" stroke-linejoin="round"/>
</svg>
