<svg width="156" height="32" viewBox="0 0 156 32" fill="none" xmlns="http://www.w3.org/2000/svg">
<path d="M16 2L6 7.65768V11.6989L10.905 14.5185V10.5079L16 7.62709L21.095 10.5079V16.2023L16 19.0892L6 13.401V27.3115L10.905 30.125V21.8294L16 24.7163L26 19.0525V7.65768L16 2Z" fill="#F26161"/>
<path fill-rule="evenodd" clip-rule="evenodd" d="M93.8228 5H98.3111V18.0236C98.3111 19.2948 98.5446 19.7359 99.5563 19.7359C99.8418 19.7359 100.101 19.7099 100.101 19.7099V23.6015C100.101 23.6015 99.4784 23.6792 98.752 23.6792C96.3651 23.6792 93.8228 23.1087 93.8228 18.6204V5ZM49.131 11.3816C49.131 12.8603 48.3529 13.9239 46.7703 13.9239H44.539V8.89099H46.8482C48.3529 8.89099 49.131 9.90265 49.131 11.3816ZM47.7055 5.00124H40V23.5508H44.5401V17.8173H47.7055C51.3114 17.8173 53.7502 15.1192 53.7502 11.3834C53.7502 7.64744 51.3114 5.00124 47.7055 5.00124ZM59.0752 10.1903H54.7684V23.5513H59.2568V18.4922C59.2568 17.7659 59.3345 17.1691 59.4903 16.6763C60.1388 14.6786 61.877 14.3412 62.9406 14.3412C63.4854 14.3412 63.8488 14.4191 63.8488 14.4191V10.0088C63.8488 10.0088 63.5893 9.95672 63.3298 9.95672C61.3322 9.95672 59.6457 11.4616 59.0752 13.2776H59.0232C59.0232 13.2776 59.0752 12.8884 59.0752 12.4473V10.1903ZM71.6583 20.123C73.2928 20.123 74.6937 18.9036 74.6937 16.9061C74.6937 14.8826 73.2928 13.6112 71.6583 13.6112C70.0238 13.6112 68.6229 14.8826 68.6229 16.9061C68.6229 18.9036 70.0238 20.123 71.6583 20.123ZM71.6326 9.87575C75.8614 9.87575 79.234 12.7037 79.234 16.9064C79.234 21.0833 75.8614 23.8591 71.6586 23.8591C67.4557 23.8591 64.083 21.0833 64.083 16.9064C64.083 12.7037 67.4557 9.87575 71.6326 9.87575ZM92.5465 11.8994C92.5465 11.8994 90.86 9.87575 87.2279 9.87575C82.4283 9.87575 79.7821 13.2743 79.7821 16.8546C79.7821 20.5385 82.4543 23.8591 87.2279 23.8591C90.9637 23.8591 92.9614 21.6542 92.9614 21.6542L91.327 18.515C91.327 18.515 89.5369 20.1233 87.669 20.1233C85.4118 20.1233 84.3222 18.3851 84.3222 16.8025C84.3222 15.2201 85.386 13.6115 87.5134 13.6115C89.3553 13.6115 90.6526 14.9086 90.6526 14.9086L92.5465 11.8994ZM105.961 8.50292H101.576V5.00049H105.961V8.50292ZM106.012 23.5489H101.524V10.1878H106.012V23.5489ZM106.649 10.1908H111.371L113.446 17.2995C113.705 18.1555 113.939 19.6083 113.939 19.6083H113.991C113.991 19.6083 114.224 18.1815 114.484 17.2995L116.533 10.1908H121.281L116.741 23.5518H111.267L106.649 10.1908ZM126.393 8.50292H122.008V5.00049H126.393V8.50292ZM126.444 23.5489H121.956V10.1878H126.444V23.5489ZM129.457 13.9253H127.745V10.4231H129.587V6.58344H133.946V10.4231H136.748V13.9253H133.946V18.0245C133.946 19.5292 135.476 19.7367 136.332 19.7367C136.696 19.7367 136.929 19.7108 136.929 19.7108V23.6024C136.929 23.6024 136.436 23.6801 135.71 23.6801C133.583 23.6801 129.457 23.1095 129.457 18.6212V13.9253ZM140.204 25.2639C139.556 25.2639 138.829 24.771 138.829 24.771L137.402 28.0659C137.402 28.0659 138.751 28.9998 140.515 28.9998C142.643 28.9998 144.978 27.962 146.093 24.9786L151.567 10.1908H146.664L144.978 16.4171C144.796 17.1437 144.537 18.4148 144.537 18.4148H144.485C144.485 18.4148 144.225 17.0658 143.992 16.3394L142.02 10.1908H136.935L142.617 23.2923L142.358 23.915C141.89 25.0563 140.931 25.2639 140.204 25.2639Z" fill="white"/>
</svg>
