<svg width="21" height="20" viewBox="0 0 21 20" fill="none" xmlns="http://www.w3.org/2000/svg">
<path d="M10.8333 10.8359C11.2936 10.8359 11.6667 10.4628 11.6667 10.0026C11.6667 9.54237 11.2936 9.16927 10.8333 9.16927C10.3731 9.16927 10 9.54237 10 10.0026C10 10.4628 10.3731 10.8359 10.8333 10.8359Z" stroke="#98A2B3" stroke-width="1.66667" stroke-linecap="round" stroke-linejoin="round"/>
<path d="M10.8333 5.0026C11.2936 5.0026 11.6667 4.62951 11.6667 4.16927C11.6667 3.70903 11.2936 3.33594 10.8333 3.33594C10.3731 3.33594 10 3.70903 10 4.16927C10 4.62951 10.3731 5.0026 10.8333 5.0026Z" stroke="#98A2B3" stroke-width="1.66667" stroke-linecap="round" stroke-linejoin="round"/>
<path d="M10.8333 16.6693C11.2936 16.6693 11.6667 16.2962 11.6667 15.8359C11.6667 15.3757 11.2936 15.0026 10.8333 15.0026C10.3731 15.0026 10 15.3757 10 15.8359C10 16.2962 10.3731 16.6693 10.8333 16.6693Z" stroke="#98A2B3" stroke-width="1.66667" stroke-linecap="round" stroke-linejoin="round"/>
</svg>
