<svg width="4" height="16" viewBox="0 0 4 16" fill="none" xmlns="http://www.w3.org/2000/svg">
<path d="M2.0013 8.83594C2.46154 8.83594 2.83463 8.46284 2.83463 8.0026C2.83463 7.54237 2.46154 7.16927 2.0013 7.16927C1.54106 7.16927 1.16797 7.54237 1.16797 8.0026C1.16797 8.46284 1.54106 8.83594 2.0013 8.83594Z" stroke="#344054" stroke-width="1.67" stroke-linecap="round" stroke-linejoin="round"/>
<path d="M2.0013 3.0026C2.46154 3.0026 2.83463 2.62951 2.83463 2.16927C2.83463 1.70903 2.46154 1.33594 2.0013 1.33594C1.54106 1.33594 1.16797 1.70903 1.16797 2.16927C1.16797 2.62951 1.54106 3.0026 2.0013 3.0026Z" stroke="#344054" stroke-width="1.67" stroke-linecap="round" stroke-linejoin="round"/>
<path d="M2.0013 14.6693C2.46154 14.6693 2.83463 14.2962 2.83463 13.8359C2.83463 13.3757 2.46154 13.0026 2.0013 13.0026C1.54106 13.0026 1.16797 13.3757 1.16797 13.8359C1.16797 14.2962 1.54106 14.6693 2.0013 14.6693Z" stroke="#344054" stroke-width="1.67" stroke-linecap="round" stroke-linejoin="round"/>
</svg>
