<svg width="16" height="16" viewBox="0 0 16 16" fill="none" xmlns="http://www.w3.org/2000/svg">
<path d="M6.0587 6.0026C6.21543 5.55705 6.5248 5.18134 6.932 4.94203C7.3392 4.70271 7.81796 4.61523 8.28348 4.69508C8.749 4.77493 9.17124 5.01695 9.47542 5.37829C9.77959 5.73963 9.94607 6.19695 9.94536 6.66927C9.94536 8.0026 7.94536 8.66927 7.94536 8.66927M7.9987 11.3359H8.00536M14.6654 8.0026C14.6654 11.6845 11.6806 14.6693 7.9987 14.6693C4.3168 14.6693 1.33203 11.6845 1.33203 8.0026C1.33203 4.32071 4.3168 1.33594 7.9987 1.33594C11.6806 1.33594 14.6654 4.32071 14.6654 8.0026Z" stroke="#98A2B3" stroke-width="1.33333" stroke-linecap="round" stroke-linejoin="round"/>
</svg>
