<svg width="112" height="24" viewBox="0 0 112 24" fill="none" xmlns="http://www.w3.org/2000/svg">
<path fill-rule="evenodd" clip-rule="evenodd" d="M53.8228 0H58.3111V13.0236C58.3111 14.2948 58.5446 14.7359 59.5563 14.7359C59.8418 14.7359 60.1011 14.7099 60.1011 14.7099V18.6015C60.1011 18.6015 59.4784 18.6792 58.752 18.6792C56.3651 18.6792 53.8228 18.1087 53.8228 13.6204V0ZM9.13101 6.38156C9.13101 7.86029 8.35288 8.92389 6.77028 8.92389H4.53901V3.89099H6.84818C8.35288 3.89099 9.13101 4.90265 9.13101 6.38156ZM7.70546 0.00123632H0V18.5508H4.54006V12.8173H7.70546C11.3114 12.8173 13.7502 10.1192 13.7502 6.3834C13.7502 2.64744 11.3114 0.00123632 7.70546 0.00123632ZM19.0752 5.19025H14.7684V18.5513H19.2568V13.4922C19.2568 12.7659 19.3345 12.1691 19.4903 11.6763C20.1388 9.67856 21.877 9.34115 22.9406 9.34115C23.4854 9.34115 23.8488 9.41906 23.8488 9.41906V5.00885C23.8488 5.00885 23.5893 4.95672 23.3298 4.95672C21.3322 4.95672 19.6457 6.46161 19.0752 8.27755H19.0232C19.0232 8.27755 19.0752 7.88839 19.0752 7.4473V5.19025ZM31.6583 15.123C33.2928 15.123 34.6937 13.9036 34.6937 11.9061C34.6937 9.88255 33.2928 8.6112 31.6583 8.6112C30.0238 8.6112 28.6229 9.88255 28.6229 11.9061C28.6229 13.9036 30.0238 15.123 31.6583 15.123ZM31.6326 4.87575C35.8614 4.87575 39.234 7.70373 39.234 11.9064C39.234 16.0833 35.8614 18.8591 31.6586 18.8591C27.4557 18.8591 24.083 16.0833 24.083 11.9064C24.083 7.70373 27.4557 4.87575 31.6326 4.87575ZM52.5465 6.89945C52.5465 6.89945 50.86 4.87575 47.2279 4.87575C42.4283 4.87575 39.7821 8.2743 39.7821 11.8546C39.7821 15.5385 42.4543 18.8591 47.2279 18.8591C50.9637 18.8591 52.9614 16.6542 52.9614 16.6542L51.327 13.515C51.327 13.515 49.5369 15.1233 47.669 15.1233C45.4118 15.1233 44.3222 13.3851 44.3222 11.8025C44.3222 10.2201 45.386 8.61152 47.5134 8.61152C49.3553 8.61152 50.6526 9.90865 50.6526 9.90865L52.5465 6.89945ZM65.9605 3.50292H61.5761V0.000493746H65.9605V3.50292ZM66.0119 18.5489H61.5236V5.1878H66.0119V18.5489ZM66.6488 5.19076H71.3707L73.4461 12.2995C73.7055 13.1555 73.939 14.6083 73.939 14.6083H73.9907C73.9907 14.6083 74.2243 13.1815 74.4836 12.2995L76.5333 5.19076H81.2809L76.7408 18.5518H71.2668L66.6488 5.19076ZM86.3927 3.50292H82.0083V0.000493746H86.3927V3.50292ZM86.4442 18.5489H81.9559V5.1878H86.4442V18.5489ZM89.4574 8.92533H87.7451V5.42309H89.5873V1.58344H93.9457V5.42309H96.7475V8.92533H93.9457V13.0245C93.9457 14.5292 95.4764 14.7367 96.3324 14.7367C96.6956 14.7367 96.9291 14.7108 96.9291 14.7108V18.6024C96.9291 18.6024 96.4363 18.6801 95.7097 18.6801C93.5825 18.6801 89.4574 18.1095 89.4574 13.6212V8.92533ZM100.204 20.2639C99.5557 20.2639 98.8291 19.771 98.8291 19.771L97.4021 23.0659C97.4021 23.0659 98.7514 23.9998 100.515 23.9998C102.643 23.9998 104.978 22.962 106.093 19.9786L111.567 5.19076H106.664L104.978 11.4171C104.796 12.1437 104.537 13.4148 104.537 13.4148H104.485C104.485 13.4148 104.225 12.0658 103.992 11.3394L102.02 5.19076H96.9353L102.617 18.2923L102.358 18.915C101.89 20.0563 100.931 20.2639 100.204 20.2639Z" fill="white"/>
</svg>
