<svg width="46" height="46" viewBox="0 0 46 46" fill="none" xmlns="http://www.w3.org/2000/svg">
<rect x="3" y="3" width="40" height="40" rx="20" fill="#F2F4F7"/>
<g clip-path="url(#clip0_3047_120878)">
<path d="M26.3326 26.3313L22.9992 22.998M22.9992 22.998L19.6659 26.3313M22.9992 22.998V30.498M29.9909 28.323C30.8037 27.8798 31.4458 27.1787 31.8158 26.3301C32.1858 25.4816 32.2627 24.534 32.0344 23.6369C31.8061 22.7397 31.2855 21.9442 30.5548 21.3758C29.8241 20.8074 28.925 20.4986 27.9992 20.498H26.9492C26.697 19.5223 26.2269 18.6166 25.5742 17.8488C24.9215 17.081 24.1033 16.4712 23.181 16.0651C22.2587 15.6591 21.2564 15.4674 20.2493 15.5045C19.2423 15.5416 18.2568 15.8065 17.3669 16.2793C16.477 16.7521 15.7058 17.4205 15.1114 18.2343C14.517 19.048 14.1148 19.9859 13.9351 20.9774C13.7553 21.969 13.8027 22.9884 14.0736 23.959C14.3445 24.9296 14.8319 25.8262 15.4992 26.5813" stroke="#475467" stroke-width="1.66667" stroke-linecap="round" stroke-linejoin="round"/>
</g>
<rect x="3" y="3" width="40" height="40" rx="20" stroke="#F9FAFB" stroke-width="6"/>
<defs>
<clipPath id="clip0_3047_120878">
<rect width="20" height="20" fill="white" transform="translate(13 13)"/>
</clipPath>
</defs>
</svg>
